<svg width="28" height="28" viewBox="0 0 28 28" fill="none" xmlns="http://www.w3.org/2000/svg">
<g id="Icon/Action/trending_up">
<path id="Vector" d="M19.6582 7.99167L21.3382 9.67167L15.6449 15.365L11.8066 11.5267C11.3516 11.0717 10.6166 11.0717 10.1616 11.5267L3.16156 18.5383C2.70656 18.9933 2.70656 19.7283 3.16156 20.1833C3.61656 20.6383 4.35156 20.6383 4.80656 20.1833L10.9782 14L14.8166 17.8383C15.2716 18.2933 16.0066 18.2933 16.4616 17.8383L22.9832 11.3283L24.6632 13.0083C25.0249 13.37 25.6549 13.1133 25.6549 12.6V7.58333C25.6666 7.25667 25.4099 7 25.0832 7H20.0782C19.5532 7 19.2966 7.63 19.6582 7.99167Z" fill="#60A5FA"/>
</g>
</svg>
